# xmcd
#
# Track frame offsets:
#	150
#	9404
#	21577
#	31764
#	43623
#	53532
#	66095
#	75642
#	88268
#	98107
#
# Disc length: 1463 seconds
#
# Revision: 0
# Processed by: cddbd v1.5.2PL0 Copyright (c) Steve Scherf et al.
# Submitted via: EZCDAudioConverter 3.1.0.1
#
DISCID=7205b50a
DTITLE=Dottie West - I Fall To Pieces
DYEAR=1969
DGENRE=Country
TTITLE0=Dottie West - Men With Evil Hearts
TTITLE1=Dottie West - I Should Start Running
TTITLE2=Dottie West-Tommy Hill's Nashville String Band - Just Because
TTITLE3=Dottie West - ANgel On Paper
TTITLE4=Dottie West - Walking In The Dark
TTITLE5=Dottie West - I Fall To Pieces
TTITLE6=Dottie West - I Lost  You Win  I'm Leaving
TTITLE7=Dottie West-Tommy Hill's Nashville String Band - Frankie And Johnny
TTITLE8=Dottie West - No Time Will I Ever
TTITLE9=Dottie West - I'd Be Lying
EXTD=
EXTT0=
EXTT1=
EXTT2=
EXTT3=
EXTT4=
EXTT5=
EXTT6=
EXTT7=
EXTT8=
EXTT9=
PLAYORDER=
